classDiagram
    %% Definició de la Classe (El Plànol)
    class Automobil {
        +String marca
        +String model
        +String matricula
        +int comptador$
        +Automobil()
        +mostrarDades() String
    }

    %% Representació de les Instàncies (Els Objectes)
    class cotxe1["<u>elMeuCotxe : Automobil</u>"] {
        marca = "Seat"
        model = "Ibiza"
        matricula = "1234ABC"
        comptador = 3
    }

    class cotxe2["<u>cotxeEmpresa : Automobil</u>"] {
        marca = "Ford"
        model = "Focus"
        matricula = "5678DEF"
        comptador = 3
    }

    class cotxe3["<u>cotxeGeneric : Automobil</u>"] {
        marca = ""
        model = ""
        matricula = ""
        comptador = 3
    }

    %% Relacions d'instanciació
    Automobil ..> cotxe1 : instantiates
    Automobil ..> cotxe2 : instantiates
    Automobil ..> cotxe3 : instantiates